<?xml version="1.0" standalone="no"?>
<!DOCTYPE svg PUBLIC "-//W3C//DTD SVG 20010904//EN"
 "http://www.w3.org/TR/2001/REC-SVG-20010904/DTD/svg10.dtd">
<svg version="1.0" xmlns="http://www.w3.org/2000/svg"
 width="700.000000pt" height="700.000000pt" viewBox="0 0 700.000000 700.000000"
 preserveAspectRatio="xMidYMid meet">
<metadata>
Created by potrace 1.11, written by Peter Selinger 2001-2013
</metadata>
<g transform="translate(0.000000,700.000000) scale(0.100000,-0.100000)"
fill="#000000" stroke="none">
<path d="M5027 5723 c-1 -1 -29 -2 -62 -4 -289 -12 -785 -243 -1057 -491 -20
-18 -65 -59 -100 -91 l-64 -58 -230 -4 c-126 -2 -238 -6 -249 -8 -11 -3 -51
-8 -90 -12 -268 -27 -521 -87 -790 -188 -338 -126 -737 -385 -970 -628 -145
-151 -275 -339 -346 -498 -37 -82 -39 -85 -74 -88 -159 -13 -312 -126 -390
-286 l-35 -74 0 -164 c0 -212 14 -266 95 -374 59 -79 125 -125 225 -161 68
-24 88 -27 215 -26 77 0 169 3 205 6 70 6 361 18 473 20 l68 1 40 -120 c59
-178 118 -302 206 -440 135 -209 330 -404 497 -495 58 -32 187 -86 226 -94 14
-3 43 -10 65 -15 113 -26 293 -30 370 -7 101 31 170 122 163 216 l-3 47 75
-65 c330 -288 731 -480 1084 -519 106 -12 329 -4 356 12 3 2 23 6 45 9 162 26
452 181 516 276 l27 40 68 -83 c38 -46 100 -122 137 -170 37 -48 82 -97 100
-107 37 -23 51 -25 41 -7 -6 8 -3 8 9 -1 14 -12 20 -11 39 2 12 9 31 16 41 16
24 0 88 64 156 155 29 39 58 77 64 85 98 128 286 466 362 650 14 36 32 79 39
95 59 134 154 456 180 605 2 14 9 52 15 85 34 192 36 296 5 355 -39 77 -285
445 -314 470 -3 3 -28 34 -55 70 -153 200 -418 489 -517 563 -20 14 -42 32
-50 39 -19 18 -64 50 -194 138 l-110 75 83 155 c298 550 309 575 301 675 -8
90 -50 150 -158 222 -149 99 -353 176 -501 189 -79 6 -228 11 -232 7z m221
-288 c126 -16 382 -130 382 -170 0 -12 -76 -164 -140 -280 -15 -27 -47 -86
-70 -130 -24 -44 -58 -107 -76 -140 -123 -223 -179 -333 -173 -337 2 -2 92
-61 199 -132 107 -71 231 -156 275 -189 209 -157 530 -528 774 -894 101 -152
103 -157 97 -201 -3 -20 -8 -55 -12 -77 -9 -67 -45 -247 -61 -305 -8 -30 -16
-59 -17 -65 -61 -231 -184 -526 -325 -780 -35 -63 -190 -293 -202 -301 -6 -3
-16 2 -24 12 -16 24 -185 225 -234 279 -208 230 -386 363 -786 587 -166 93
-218 105 -281 63 -29 -19 -62 -84 -59 -118 6 -66 14 -76 225 -262 25 -22 47
-42 50 -45 3 -3 43 -39 90 -80 46 -41 91 -82 100 -90 9 -8 52 -47 96 -86 43
-39 99 -89 123 -111 l44 -40 -49 -29 c-191 -116 -381 -157 -609 -130 -62 8
-205 40 -240 55 -11 5 -42 17 -70 26 -27 10 -90 38 -138 61 -399 197 -681 467
-961 922 -63 102 -93 125 -163 125 -30 0 -52 -8 -77 -26 -36 -28 -72 -104 -63
-134 3 -10 35 -103 72 -208 37 -104 73 -208 80 -230 8 -22 32 -93 55 -159 22
-65 38 -121 35 -124 -12 -13 -107 -3 -208 22 -343 85 -659 478 -788 978 -25
97 -41 128 -83 160 -29 22 -40 23 -176 22 -143 0 -352 -8 -565 -20 -256 -14
-305 -10 -367 31 -63 42 -78 85 -78 227 0 130 7 155 59 207 49 49 66 54 198
55 l126 2 37 109 c20 61 52 139 70 175 35 71 130 218 170 264 141 165 231 248
405 372 71 51 250 164 260 164 3 0 22 10 43 23 116 72 360 164 591 223 127 33
155 39 226 48 17 3 46 7 65 10 136 21 269 29 497 31 l263 2 102 99 c186 180
328 284 523 382 285 142 509 188 763 157z"/>
</g>
</svg>
